<?xml version="1.0" encoding="UTF-8" standalone="no"?>
<svg
   viewBox="-8.13784 0 263.69886 263.69886"
   version="1.1"
   id="svg138"
   sodipodi:docname="dog.svg"
   width="263.69886"
   height="263.69886"
   xmlns:inkscape="http://www.inkscape.org/namespaces/inkscape"
   xmlns:sodipodi="http://sodipodi.sourceforge.net/DTD/sodipodi-0.dtd"
   xmlns="http://www.w3.org/2000/svg"
   xmlns:svg="http://www.w3.org/2000/svg">
  <sodipodi:namedview
     id="namedview140"
     pagecolor="#ffffff"
     bordercolor="#000000"
     borderopacity="0.25"
     inkscape:showpageshadow="2"
     inkscape:pageopacity="0.0"
     inkscape:pagecheckerboard="0"
     inkscape:deskcolor="#d1d1d1" />
  <defs
     id="defs38">
    <clipPath
       id="f">
      <path
         d="M 0,595.28 H 841.89 V 0 H 0 Z"
         id="path2" />
    </clipPath>
    <linearGradient
       id="e"
       x1="476"
       x2="519.41998"
       gradientUnits="userSpaceOnUse">
      <stop
         stop-color="#5a5758"
         offset="0"
         id="stop5" />
      <stop
         stop-color="#262223"
         offset="1"
         id="stop7" />
    </linearGradient>
    <linearGradient
       id="d"
       x1="358.63"
       x2="389.67001"
       gradientUnits="userSpaceOnUse">
      <stop
         stop-color="#5a5758"
         offset="0"
         id="stop10" />
      <stop
         stop-color="#262223"
         offset=".55618"
         id="stop12" />
      <stop
         stop-color="#231f20"
         offset="1"
         id="stop14" />
    </linearGradient>
    <linearGradient
       id="c"
       x1="324.5"
       x2="503.29001"
       gradientUnits="userSpaceOnUse">
      <stop
         stop-color="#bdbcbc"
         offset="0"
         id="stop17" />
      <stop
         stop-color="#5a5758"
         offset=".52809"
         id="stop19" />
      <stop
         stop-color="#9c9a9b"
         offset="1"
         id="stop21" />
    </linearGradient>
    <linearGradient
       id="b"
       x1="435.35999"
       x2="503.51999"
       gradientUnits="userSpaceOnUse">
      <stop
         stop-color="#5a5758"
         offset="0"
         id="stop24" />
      <stop
         stop-color="#373334"
         offset=".52809"
         id="stop26" />
      <stop
         stop-color="#9c9a9b"
         offset="1"
         id="stop28" />
    </linearGradient>
    <linearGradient
       id="a"
       x1="331.70999"
       x2="377.28"
       gradientUnits="userSpaceOnUse">
      <stop
         stop-color="#5a5758"
         offset="0"
         id="stop31" />
      <stop
         stop-color="#262223"
         offset=".55618"
         id="stop33" />
      <stop
         stop-color="#231f20"
         offset="1"
         id="stop35" />
    </linearGradient>
  </defs>
  <g
     transform="matrix(1.25,0,0,-1.25,-403.73189,502.96303)"
     id="g136">
    <g
       clip-path="url(#f)"
       id="g134">
      <path
         d="m 496,311 c -6.666,5.333 -20,14.666 -20,22.666 0,8 9.334,34 14.667,46 5.333,12 16,20.667 16,20.667 0,0 14,-14.667 12.667,-34 -1.521,-22.038 -2,-34 -4,-38 -2,-4 -10.668,-20 -16,-22 C 496.213,305.162 496,311 496,311"
         fill="url(#e)"
         id="path40"
         style="fill:url(#e)" />
      <path
         d="m 496,311 c -6.666,5.333 -20,14.666 -20,22.666 0,8 9.334,34 14.667,46 5.333,12 16,20.667 16,20.667 0,0 14,-14.667 12.667,-34 -1.521,-22.038 -2,-34 -4,-38 -2,-4 -10.668,-20 -16,-22 C 496.213,305.162 496,311 496,311 Z"
         fill="none"
         stroke="#231f20"
         stroke-width="3"
         id="path42" />
      <path
         d="m 369.76,324.67 c -6.635,9.257 -9.048,5.555 -10.857,30.238 -1.809,24.683 6.032,44.43 6.032,44.43 0,0 15.682,-14.811 16.889,-17.896 1.207,-3.085 7.841,-24.683 7.841,-24.683 l -3.619,-14.192 z"
         fill="url(#d)"
         id="path44"
         style="fill:url(#d)" />
      <path
         d="m 369.76,324.67 c -6.635,9.257 -9.048,5.555 -10.857,30.238 -1.809,24.683 6.032,44.43 6.032,44.43 0,0 15.682,-14.811 16.889,-17.896 1.207,-3.085 7.841,-24.683 7.841,-24.683 l -3.619,-14.192 z"
         fill="none"
         stroke="#231f20"
         stroke-width="3"
         id="path46" />
      <path
         d="m 501.33,285 c 5.332,14 -1.334,46 -6.668,53.334 -5.334,7.334 -38.772,33.309 -58,35.332 -25.333,2.668 -54.146,-6.402 -67.999,-19.332 -10,-9.334 -14.958,-37.262 -17.334,-41.334 -4.666,-8 -6.666,-8.667 -13.333,-20 -6.667,-11.333 -14.774,-24.074 -13.333,-32 2.666,-14.667 13.333,-26 13.333,-26 0,0 40.667,-11.334 49.333,-7.334 8.666,4 40.001,29.334 50.001,34.667 10,5.333 58.666,8.667 64,22.667"
         fill="url(#c)"
         id="path48"
         style="fill:url(#c)" />
      <path
         d="m 501.33,285 c 5.332,14 -1.334,46 -6.668,53.334 -5.334,7.334 -38.772,33.309 -58,35.332 -25.333,2.668 -54.146,-6.402 -67.999,-19.332 -10,-9.334 -14.958,-37.262 -17.334,-41.334 -4.666,-8 -6.666,-8.667 -13.333,-20 -6.667,-11.333 -14.774,-24.074 -13.333,-32 2.666,-14.667 13.333,-26 13.333,-26 0,0 40.667,-11.334 49.333,-7.334 8.666,4 40.001,29.334 50.001,34.667 10,5.333 58.666,8.667 64,22.667 z"
         fill="none"
         stroke="#231f20"
         stroke-width="3"
         id="path50" />
      <path
         d="m 445.63,289.33 c -6.215,10.668 -37.293,16.488 -37.293,16.488 0,0 1.554,17.459 10.1,25.219 8.546,7.76 27.233,2.625 31.079,-6.789 2.645,-6.477 -3.886,-34.918 -3.886,-34.918"
         fill="#100f0d"
         id="path52" />
      <path
         d="m 445.63,289.33 c -6.215,10.668 -37.293,16.488 -37.293,16.488 0,0 1.554,17.459 10.1,25.219 8.546,7.76 27.233,2.625 31.079,-6.789 2.645,-6.477 -3.886,-34.918 -3.886,-34.918 z"
         fill="none"
         stroke="#231f20"
         id="path54" />
      <path
         d="m 494.67,338.33 c -15.332,-3.334 -16.666,-3.334 -30,-10.001 -13.334,-6.667 -26.666,-34.666 -28.666,-45.333 -2,-10.667 1.334,-20.667 1.334,-20.667 0,0 15.332,3.333 25.332,6 10,2.667 33.334,8 38,14 4.666,6 2.668,30.001 0.668,38.667 -2,8.666 -6.668,17.334 -6.668,17.334"
         fill="url(#b)"
         id="path56"
         style="fill:url(#b)" />
      <path
         d="m 494.67,338.33 c -15.332,-3.334 -16.666,-3.334 -30,-10.001 -13.334,-6.667 -26.666,-34.666 -28.666,-45.333 -2,-10.667 1.334,-20.667 1.334,-20.667 0,0 15.332,3.333 25.332,6 10,2.667 33.334,8 38,14 4.666,6 2.668,30.001 0.668,38.667 -2,8.666 -6.668,17.334 -6.668,17.334 z"
         fill="none"
         stroke="#100f0d"
         stroke-width="3"
         id="path58" />
      <path
         d="m 381.15,252.55 c -1.032,-6.36 -8.001,-10.521 -15.565,-9.293 l -23.48,3.809 c -7.564,1.229 -12.859,7.379 -11.827,13.741 1.032,6.362 8.001,10.52 15.565,9.293 l 23.48,-3.811 c 7.564,-1.227 12.859,-7.379 11.827,-13.739"
         fill="#ffffff"
         id="path60" />
      <path
         d="m 381.15,252.55 c -1.032,-6.36 -8.001,-10.521 -15.565,-9.293 l -23.48,3.809 c -7.564,1.229 -12.859,7.379 -11.827,13.741 1.032,6.362 8.001,10.52 15.565,9.293 l 23.48,-3.811 c 7.564,-1.227 12.859,-7.379 11.827,-13.739 z"
         fill="none"
         stroke="#231f20"
         stroke-width="3"
         id="path62" />
      <path
         d="m 343.33,233.67 3.667,-8.332 c 0,0 26.341,-11.998 40,-8.334 13.667,3.666 41,39.333 41,39.333 0,0 -36,-28 -40.667,-28.667 -4.667,-0.667 0.667,-1.999 -13.333,-0.666 -14,1.333 -30.667,6.666 -30.667,6.666"
         fill="#ed1838"
         id="path64" />
      <path
         d="m 343.33,233.67 3.667,-8.332 c 0,0 26.341,-11.998 40,-8.334 13.667,3.666 41,39.333 41,39.333 0,0 -36,-28 -40.667,-28.667 -4.667,-0.667 0.667,-1.999 -13.333,-0.666 -14,1.333 -30.667,6.666 -30.667,6.666 z"
         fill="none"
         stroke="#231f20"
         id="path66" />
      <path
         d="m 440.01,331.67 c 9.023,-4.957 2.983,-18.307 -1.699,-23.142 -3.992,-4.11 -13.954,-9.049 -18.92,-3.974 -4.605,4.707 -2.999,12.283 -1.866,17.613"
         fill="#5e5f61"
         id="path68" />
      <path
         d="m 440.01,331.67 c 9.023,-4.957 2.983,-18.307 -1.699,-23.142 -3.992,-4.11 -13.954,-9.049 -18.92,-3.974 -4.605,4.707 -2.999,12.283 -1.866,17.613"
         fill="none"
         stroke="#231f20"
         stroke-width="2"
         id="path70" />
      <path
         d="m 417.525,322.17 c 3.221,5.613 5.795,7.377 8.72,8.978 3.923,2.155 9.374,2.937 13.765,0.525"
         fill="#5e5f61"
         id="path72" />
      <path
         d="m 417.525,322.17 c 3.221,5.613 5.795,7.377 8.72,8.978 3.923,2.155 9.374,2.937 13.765,0.525"
         fill="none"
         stroke="#231f20"
         stroke-width="2"
         id="path74" />
      <path
         d="m 416.863,316.657 c -0.373,-6.255 0.033,-15.392 10.894,-14.245 6.997,0.734 12.798,8.711 12.808,14.248 0.013,5.756 -6.534,13.176 -14.105,10.97 -6.2,-1.81 -8.552,-5.391 -9.203,-8.023 z"
         fill="#ffffff"
         id="path76" />
      <path
         d="m 416.863,316.657 c -0.373,-6.255 0.033,-15.392 10.894,-14.245 6.997,0.734 12.798,8.711 12.808,14.248 0.013,5.756 -6.534,13.176 -14.105,10.97 -6.2,-1.81 -8.552,-5.391 -9.203,-8.023 z"
         fill="none"
         stroke="#231f20"
         id="path78" />
      <path
         d="m 418.737,311.533 c -0.939,-3.797 0.693,-7.465 3.646,-8.195 2.953,-0.73 6.106,1.754 7.045,5.55 0.939,3.794 -0.692,7.464 -3.645,8.194 -2.953,0.73 -6.107,-1.755 -7.046,-5.549"
         fill="#100f0d"
         id="path80" />
      <path
         d="m 418.737,311.533 c -0.939,-3.797 0.693,-7.465 3.646,-8.195 2.953,-0.73 6.106,1.754 7.045,5.55 0.939,3.794 -0.692,7.464 -3.645,8.194 -2.953,0.73 -6.107,-1.755 -7.046,-5.549 z"
         fill="none"
         stroke="#231f20"
         id="path82" />
      <path
         d="m 427.248,304.138 c -1.211,0.069 -3.542,3.702 -2.948,5.247 4.636,-0.415 6.208,-3.17 2.948,-5.247"
         fill="#ffffff"
         id="path84" />
      <path
         d="m 343.58,233.42 -5.333,1.334 c 0,0 2,-9.333 3.333,-12 1.333,-2.667 18,-10 32,-12 14,-2 20,-5.334 31.334,9.333 11.334,14.667 32.667,42 32.667,42 l -9.334,-6 c 0,0 -29.564,-35.993 -39.667,-39.667 -7.333,-2.666 -13.801,0.662 -42.666,9 z"
         fill="#2e2d2d"
         id="path86" />
      <path
         d="m 343.58,233.42 -5.333,1.334 c 0,0 2,-9.333 3.333,-12 1.333,-2.667 18,-10 32,-12 14,-2 20,-5.334 31.334,9.333 11.334,14.667 32.667,42 32.667,42 l -9.334,-6 c 0,0 -29.564,-35.993 -39.667,-39.667 -7.333,-2.666 -13.801,0.662 -42.666,9 z"
         fill="none"
         stroke="#231f20"
         stroke-width="3"
         id="path88" />
      <path
         d="m 341.33,223 c 3.334,-9 1.667,-13 8.667,-17 7,-4 33.333,-15.333 41.667,-12.666 8.334,2.667 16.333,7.666 19,12 2.667,4.334 39,60.332 39,60.332 l -12.333,-3.333 c 0,0 -35.334,-48.333 -40.334,-50.333 -5,-2 -5.333,-2.666 -11.667,-2.666 -6.334,0 -29.401,5.797 -32.666,7 C 346.33,218.666 341.33,223 341.33,223"
         fill="#5e5f61"
         id="path90" />
      <path
         d="m 341.33,223 c 3.334,-9 1.667,-13 8.667,-17 7,-4 33.333,-15.333 41.667,-12.666 8.334,2.667 16.333,7.666 19,12 2.667,4.334 39,60.332 39,60.332 l -12.333,-3.333 c 0,0 -35.334,-48.333 -40.334,-50.333 -5,-2 -5.333,-2.666 -11.667,-2.666 -6.334,0 -29.401,5.797 -32.666,7 C 346.33,218.666 341.33,223 341.33,223 Z"
         fill="none"
         stroke="#231f20"
         stroke-width="3"
         id="path92" />
      <path
         d="m 353.667,308 c 8,0.666 20,1.334 21,0.666 1,-0.668 4.666,14 4.333,19 -0.333,5 -1.333,7.668 -3.333,9 -2,1.332 -6.25,2.354 -10.667,1.334 -4.333,-1 -9,-5.334 -10.333,-12.334 -1.333,-7 -1.334,-17 -1.334,-17"
         fill="#100f0d"
         id="path94" />
      <path
         d="m 353.667,308 c 8,0.666 20,1.334 21,0.666 1,-0.668 4.666,14 4.333,19 -0.333,5 -1.333,7.668 -3.333,9 -2,1.332 -6.25,2.354 -10.667,1.334 -4.333,-1 -9,-5.334 -10.333,-12.334 -1.333,-7 -1.334,-17 -1.334,-17"
         fill="none"
         stroke="#231f20"
         id="path96" />
      <path
         d="m 364.27,336.82 c -7.117,-0.438 -8.147,-12.165 -7.029,-17.28 0.957,-4.352 5.194,-11.377 9.926,-9.443 4.389,1.794 6.063,7.816 7.237,12.053"
         fill="#5e5f61"
         id="path98" />
      <path
         d="m 364.27,336.82 c -7.117,-0.438 -8.147,-12.165 -7.029,-17.28 0.957,-4.352 5.194,-11.377 9.926,-9.443 4.389,1.794 6.063,7.816 7.237,12.053"
         fill="none"
         stroke="#231f20"
         stroke-width="2"
         id="path100" />
      <path
         d="m 374.4,322.16 c 0.027,5.168 -0.898,7.335 -2.09,9.507 -1.595,2.918 -4.582,5.376 -8.044,5.163"
         fill="#5e5f61"
         id="path102" />
      <path
         d="m 374.4,322.16 c 0.027,5.168 -0.898,7.335 -2.09,9.507 -1.595,2.918 -4.582,5.376 -8.044,5.163"
         fill="none"
         stroke="#231f20"
         stroke-width="2"
         id="path104" />
      <path
         d="m 372.88,317.95 c -1.951,-4.639 -5.37,-11.089 -11.463,-6.486 -3.926,2.963 -4.62,10.731 -2.702,14.728 1.993,4.155 8.485,7.231 12.243,3.008 3.078,-3.461 3.238,-6.86 2.713,-8.984 z"
         fill="#ffffff"
         id="path106" />
      <path
         d="m 372.88,317.95 c -1.951,-4.639 -5.37,-11.089 -11.463,-6.486 -3.926,2.963 -4.62,10.731 -2.702,14.728 1.993,4.155 8.485,7.231 12.243,3.008 3.078,-3.461 3.238,-6.86 2.713,-8.984 z"
         fill="none"
         stroke="#231f20"
         id="path108" />
      <path
         d="m 369.98,314.9 c -0.758,-3.063 -3.008,-5.142 -5.028,-4.642 -2.02,0.5 -3.04,3.387 -2.281,6.452 0.759,3.065 3.008,5.142 5.027,4.642 2.019,-0.5 3.039,-3.388 2.282,-6.452"
         fill="#100f0d"
         id="path110" />
      <path
         d="m 369.98,314.9 c -0.758,-3.063 -3.008,-5.142 -5.028,-4.642 -2.02,0.5 -3.04,3.387 -2.281,6.452 0.759,3.065 3.008,5.142 5.027,4.642 2.019,-0.5 3.039,-3.388 2.282,-6.452 z"
         fill="none"
         stroke="#231f20"
         id="path112" />
      <path
         d="m 362.324,312.531 c 0.748,-0.371 3.404,1.438 3.586,2.758 -2.915,1.313 -4.811,-0.127 -3.586,-2.758"
         fill="#ffffff"
         id="path114" />
      <path
         d="m 377.168,251.512 c -0.782,-4.64 -5.327,-7.741 -10.154,-6.926 l -27.866,4.699 c -4.826,0.817 -8.104,5.235 -7.321,9.874 0.783,4.639 5.328,7.739 10.155,6.925 l 27.866,-4.699 c 4.826,-0.816 8.103,-5.235 7.32,-9.873"
         fill="url(#a)"
         id="path116"
         style="fill:url(#a)" />
      <path
         d="m 377.168,251.512 c -0.782,-4.64 -5.327,-7.741 -10.154,-6.926 l -27.866,4.699 c -4.826,0.817 -8.104,5.235 -7.321,9.874 0.783,4.639 5.328,7.739 10.155,6.925 l 27.866,-4.699 c 4.826,-0.816 8.103,-5.235 7.32,-9.873 z"
         fill="none"
         stroke="#231f20"
         id="path118" />
      <path
         d="m 343.33,301.33 c 8.334,5 5.675,4.638 14.334,7 3.666,1 6.653,1.324 19.333,1 13,-0.334 24,-1.667 30.667,-3 6.667,-1.333 29,-5.668 38,-17.668 9,-12 12.333,-18.332 13,-20.332"
         fill="none"
         stroke="#231f20"
         stroke-width="2"
         id="path120" />
      <path
         d="m 412,348 c -0.75,1.75 -18,4 -21,3 -3,-1 -6.5,-30.75 -4,-32 2.5,-1.25 7.75,-2.25 11,-1 3.25,1.25 14.75,28.25 14,30"
         fill="#ffffff"
         id="path122" />
      <path
         d="m 407.75,204.25 c -8,11.5 -7.5,12.75 -6.75,10.25 0.75,-2.5 -9.779,-5.869 -12.25,-6.25 l 2.25,-13.5 c 0,0 8.5,1.5 12.5,4.5 4,3 4.25,5 4.25,5"
         fill="#949594"
         id="path124" />
      <path
         d="m 407.67,306.33 c 4.25,15.75 8.583,30.666 25.333,42.916 16.75,12.25 27,14.25 27,14.25"
         fill="none"
         stroke="#231f20"
         stroke-width="2"
         id="path126" />
      <path
         d="m 376,310.25 c 4.75,23.75 7.75,42.5 10.25,47.75 2.5,5.25 8.5,10 8.5,10"
         fill="none"
         stroke="#231f20"
         stroke-width="2"
         id="path128" />
      <path
         d="m 511.67,315 c 0,-6.26 -4.029,-11.334 -9,-11.334 -4.971,0 -9,5.074 -9,11.334 0,6.26 4.029,11.334 9,11.334 4.971,0 9,-5.074 9,-11.334"
         fill="#5e5f61"
         id="path130" />
      <path
         d="m 511.67,315 c 0,-6.26 -4.029,-11.334 -9,-11.334 -4.971,0 -9,5.074 -9,11.334 0,6.26 4.029,11.334 9,11.334 4.971,0 9,-5.074 9,-11.334 z"
         fill="none"
         stroke="#231f20"
         stroke-width="3"
         id="path132" />
    </g>
  </g>
</svg>
